# xmcd
#
# Track frame offsets: 
#        150
#        23736
#        39832
#        49852
#        56753
#        71947
#        84576
#        96652
#        106348
#        121313
#        136430
#        147385
#        160385
#        174195
#        175491
#        188919
#        199888
#        206639
#
# Disc length: 3001 seconds
#
# Revision: 0
# Processed by: cddbd v1.5.2PL0 Copyright (c) Steve Scherf et al.
# Submitted via: ExactAudioCopy v0.99pb3
#
DISCID=0f0bb712
DTITLE=NED - Il Giardino di NED
DYEAR=2006
DGENRE=Ambient
TTITLE0=Lampyris Noticula
TTITLE1=Microtus Arvalis
TTITLE2=Rubus Fruticosus
TTITLE3=Pala Meccanica FL4M FIAT ALLYS
TTITLE4=Borrago Officinalis
TTITLE5=Cunvallaria Maialis
TTITLE6=Ipericum Perforatum
TTITLE7=Botritis Cinerea
TTITLE8=Taraxacum Officinalis
TTITLE9=Nerium Oleander
TTITLE10=Ruta Graveolens
TTITLE11=Gallus Bankiva
TTITLE12=Populus Tremula
TTITLE13=Umidità Relativa 90%
TTITLE14=Equus Caballum
TTITLE15=Plantago Maior
TTITLE16=Tillandsia Lindeniana
TTITLE17=Bellis Perennis
EXTD=
EXTT0=
EXTT1=
EXTT2=
EXTT3=
EXTT4=
EXTT5=
EXTT6=
EXTT7=
EXTT8=
EXTT9=
EXTT10=
EXTT11=
EXTT12=
EXTT13=
EXTT14=
EXTT15=
EXTT16=
EXTT17=
PLAYORDER=
